@startuml

[*] -right-> NewEvent
NewEvent --> [*]
NewEvent: Input basic information (name, place, duration)

NewEvent --> AddParticipant
AddParticipant --> AddParticipant
AddParticipant --> NewEvent

NewEvent -down-> AddRecurrencyInformation
AddRecurrencyInformation -> NewEvent

NewEvent -right-> ScheduleTrip
ScheduleTrip: Schedule the trip and check if it's possible 
ScheduleTrip: to be in time given the previous event
ScheduleTrip --> [*]

@enduml